# xmcd
#
# Track frame offsets:
# 150
# 21241
# 38539
# 57649
# 79756
# 101912
# 125634
# 148376
# 164447
# 188453
# 214491
# 232382
#
# Disc length: 3532 seconds
#
#
# Revision: 0
# Processed by: cddbd v1.5.2PL0 Copyright (c) Steve Scherf et al.
# Submitted via: Nero 7, 11, 10, 0 
#
DISCID=b80dca0c
DTITLE=Red Young - The Organizer
DYEAR=2003
DGENRE=Blues
TTITLE0=Blues Beans N' Greens
TTITLE1=Soul Jam
TTITLE2=Organ Grind Blues
TTITLE3=Gettin Around
TTITLE4=Sportin'
TTITLE5=Blowin' A Load
TTITLE6=Pleasure Island
TTITLE7=Smokin' At Red's
TTITLE8=Mr. Lucky
TTITLE9=Swingin' Little Thing
TTITLE10=Green Onions
TTITLE11=Where Are You?
EXTD=
EXTT0=Blues Beans N' Greens
EXTT1=Soul Jam
EXTT2=Organ Grind Blues
EXTT3=Gettin Around
EXTT4=Sportin'
EXTT5=Blowin' A Load
EXTT6=Pleasure Island
EXTT7=Smokin' At Red's
EXTT8=Mr. Lucky
EXTT9=Swingin' Little Thing
EXTT10=Green Onions
EXTT11=Where Are You?
PLAYORDER=
